<svg width="12" height="12" viewBox="0 0 12 12" fill="none" xmlns="http://www.w3.org/2000/svg">
<path fill-rule="evenodd" clip-rule="evenodd" d="M5.89886 0.245361C2.97587 0.245361 0.606201 2.80095 0.606201 5.95327C0.606201 9.10559 2.97587 11.6612 5.89886 11.6612C8.82185 11.6612 11.1915 9.10559 11.1915 5.95327C11.1915 2.80095 8.82185 0.245361 5.89886 0.245361ZM8.19298 4.98811C8.23523 4.93604 8.26739 4.87537 8.28757 4.8097C8.30776 4.74402 8.31556 4.67465 8.31052 4.60567C8.30547 4.5367 8.28769 4.4695 8.25822 4.40805C8.22874 4.34659 8.18817 4.29211 8.13888 4.24782C8.08959 4.20352 8.03259 4.1703 7.97122 4.15012C7.90985 4.12993 7.84536 4.12319 7.78155 4.13028C7.71773 4.13737 7.65587 4.15815 7.5996 4.19141C7.54334 4.22466 7.49382 4.26972 7.45394 4.32392L5.38499 7.00093L4.31443 5.84585C4.22368 5.75133 4.10214 5.69903 3.97599 5.70021C3.84983 5.70139 3.72915 5.75597 3.63994 5.85217C3.55073 5.94838 3.50013 6.07853 3.49904 6.21458C3.49794 6.35064 3.54644 6.48171 3.63408 6.57958L5.07753 8.13628C5.12481 8.18723 5.18141 8.22701 5.24373 8.25306C5.30605 8.27912 5.37272 8.29089 5.43949 8.28762C5.50626 8.28435 5.57166 8.26611 5.63154 8.23407C5.69141 8.20202 5.74443 8.15688 5.78723 8.10151L8.19298 4.98811Z" fill="#007AFF"/>
</svg>
