<svg width="134" height="44" viewBox="0 0 134 44" fill="none" xmlns="http://www.w3.org/2000/svg">
<path d="M56.3419 15.26C57.8095 15.26 59.0969 15.5469 60.2043 16.1205C61.325 16.6942 62.1855 17.5147 62.7859 18.582C63.3996 19.636 63.7064 20.8634 63.7064 22.2643C63.7064 23.6651 63.3996 24.8925 62.7859 25.9465C62.1855 26.9872 61.325 27.7943 60.2043 28.368C59.0969 28.9417 57.8095 29.2285 56.3419 29.2285H51.459V15.26H56.3419ZM56.2419 26.8471C57.7094 26.8471 58.8435 26.4468 59.6439 25.6463C60.4444 24.8458 60.8447 23.7185 60.8447 22.2643C60.8447 20.8101 60.4444 19.676 59.6439 18.8622C58.8435 18.035 57.7094 17.6215 56.2419 17.6215H54.2607V26.8471H56.2419ZM67.2245 16.821C66.7309 16.821 66.3173 16.6675 65.9837 16.3607C65.6635 16.0405 65.5034 15.6469 65.5034 15.18C65.5034 14.713 65.6635 14.3261 65.9837 14.0193C66.3173 13.6991 66.7309 13.539 67.2245 13.539C67.7181 13.539 68.125 13.6991 68.4452 14.0193C68.7788 14.3261 68.9455 14.713 68.9455 15.18C68.9455 15.6469 68.7788 16.0405 68.4452 16.3607C68.125 16.6675 67.7181 16.821 67.2245 16.821ZM68.6053 18.1418V29.2285H65.8036V18.1418H68.6053ZM75.9962 26.6469L78.7979 18.1418H81.7798L77.6773 29.2285H74.2752L70.1927 18.1418H73.1945L75.9962 26.6469ZM93.6596 23.445C93.6596 23.8452 93.633 24.2055 93.5796 24.5257H85.4747C85.5414 25.3261 85.8215 25.9532 86.3152 26.4068C86.8088 26.8604 87.4158 27.0872 88.1363 27.0872C89.1769 27.0872 89.9174 26.6403 90.3576 25.7464H93.3795C93.0593 26.8137 92.4456 27.6942 91.5384 28.388C90.6311 29.0684 89.5171 29.4086 88.1963 29.4086C87.129 29.4086 86.1684 29.1751 85.3146 28.7082C84.4741 28.2279 83.8137 27.5542 83.3334 26.687C82.8664 25.8198 82.6329 24.8192 82.6329 23.6851C82.6329 22.5378 82.8664 21.5305 83.3334 20.6633C83.8003 19.7961 84.454 19.129 85.2946 18.6621C86.1351 18.1951 87.1023 17.9617 88.1963 17.9617C89.2503 17.9617 90.1909 18.1885 91.018 18.6421C91.8586 19.0957 92.5056 19.7427 92.9592 20.5833C93.4262 21.4104 93.6596 22.3643 93.6596 23.445ZM90.7579 22.6445C90.7445 21.9241 90.4844 21.3504 89.9774 20.9235C89.4704 20.4832 88.8501 20.2631 88.1163 20.2631C87.4225 20.2631 86.8355 20.4765 86.3552 20.9034C85.8883 21.317 85.6014 21.8974 85.4947 22.6445H90.7579ZM100.528 29.3686C99.5536 29.3686 98.6731 29.2018 97.886 28.8683C97.1122 28.5348 96.4985 28.0545 96.0448 27.4274C95.5912 26.8004 95.3578 26.0599 95.3444 25.2061H98.3462C98.3863 25.7798 98.5864 26.2334 98.9466 26.5669C99.3202 26.9004 99.8271 27.0672 100.468 27.0672C101.121 27.0672 101.635 26.9138 102.008 26.6069C102.382 26.2867 102.569 25.8731 102.569 25.3662C102.569 24.9526 102.442 24.6124 102.189 24.3455C101.935 24.0787 101.615 23.8719 101.228 23.7252C100.854 23.5651 100.334 23.3916 99.6671 23.2048C98.7598 22.938 98.0194 22.6779 97.4457 22.4244C96.8854 22.1575 96.3984 21.764 95.9848 21.2437C95.5846 20.71 95.3844 20.0029 95.3844 19.1224C95.3844 18.2952 95.5912 17.5748 96.0048 16.961C96.4184 16.3473 96.9988 15.8804 97.7459 15.5602C98.493 15.2267 99.3469 15.0599 100.307 15.0599C101.748 15.0599 102.916 15.4134 103.81 16.1205C104.717 16.8143 105.217 17.7882 105.31 19.0423H102.229C102.202 18.562 101.995 18.1685 101.608 17.8616C101.235 17.5414 100.734 17.3813 100.107 17.3813C99.5603 17.3813 99.1201 17.5214 98.7865 17.8016C98.4663 18.0817 98.3062 18.4886 98.3062 19.0223C98.3062 19.3959 98.4263 19.7094 98.6664 19.9629C98.9199 20.203 99.2268 20.4031 99.587 20.5632C99.9606 20.71 100.481 20.8834 101.148 21.0836C102.055 21.3504 102.796 21.6172 103.369 21.884C103.943 22.1509 104.437 22.5511 104.85 23.0848C105.264 23.6184 105.471 24.3189 105.471 25.1861C105.471 25.9332 105.277 26.6269 104.89 27.2673C104.503 27.9077 103.936 28.4214 103.189 28.8083C102.442 29.1818 101.555 29.3686 100.528 29.3686ZM118.206 23.445C118.206 23.8452 118.179 24.2055 118.126 24.5257H110.021C110.088 25.3261 110.368 25.9532 110.861 26.4068C111.355 26.8604 111.962 27.0872 112.682 27.0872C113.723 27.0872 114.464 26.6403 114.904 25.7464H117.926C117.605 26.8137 116.992 27.6942 116.085 28.388C115.177 29.0684 114.063 29.4086 112.743 29.4086C111.675 29.4086 110.715 29.1751 109.861 28.7082C109.02 28.2279 108.36 27.5542 107.88 26.687C107.413 25.8198 107.179 24.8192 107.179 23.6851C107.179 22.5378 107.413 21.5305 107.88 20.6633C108.347 19.7961 109 19.129 109.841 18.6621C110.681 18.1951 111.649 17.9617 112.743 17.9617C113.796 17.9617 114.737 18.1885 115.564 18.6421C116.405 19.0957 117.052 19.7427 117.505 20.5833C117.972 21.4104 118.206 22.3643 118.206 23.445ZM115.304 22.6445C115.291 21.9241 115.031 21.3504 114.524 20.9235C114.017 20.4832 113.396 20.2631 112.662 20.2631C111.969 20.2631 111.382 20.4765 110.901 20.9034C110.434 21.317 110.148 21.8974 110.041 22.6445H115.304ZM119.53 23.6451C119.53 22.5244 119.751 21.5305 120.191 20.6633C120.644 19.7961 121.251 19.129 122.012 18.6621C122.786 18.1951 123.646 17.9617 124.593 17.9617C125.421 17.9617 126.141 18.1284 126.755 18.462C127.382 18.7955 127.882 19.2158 128.256 19.7227V18.1418H131.077V29.2285H128.256V27.6075C127.895 28.1278 127.395 28.5614 126.755 28.9083C126.128 29.2419 125.401 29.4086 124.573 29.4086C123.64 29.4086 122.786 29.1685 122.012 28.6882C121.251 28.2079 120.644 27.5342 120.191 26.667C119.751 25.7864 119.53 24.7791 119.53 23.6451ZM128.256 23.6851C128.256 23.0047 128.122 22.4244 127.855 21.9441C127.589 21.4504 127.228 21.0769 126.775 20.8234C126.321 20.5566 125.834 20.4232 125.314 20.4232C124.794 20.4232 124.313 20.5499 123.873 20.8034C123.433 21.0569 123.073 21.4304 122.792 21.9241C122.526 22.4044 122.392 22.978 122.392 23.6451C122.392 24.3122 122.526 24.8992 122.792 25.4062C123.073 25.8998 123.433 26.2801 123.873 26.5469C124.327 26.8137 124.807 26.9471 125.314 26.9471C125.834 26.9471 126.321 26.8204 126.775 26.5669C127.228 26.3001 127.589 25.9265 127.855 25.4462C128.122 24.9526 128.256 24.3656 128.256 23.6851Z" fill="white"/>
<path d="M38.4914 29.6329C36.8975 29.6329 36.191 29.0171 35.1948 28.1476C34.0899 27.2057 32.7133 26.0103 30.123 26.0103C27.5147 26.0103 26.1562 27.2057 25.0512 28.1476C24.055 29.0171 23.3305 29.6329 21.7365 29.6329C20.1606 29.6329 19.4361 29.0171 18.4398 28.1476C17.3349 27.2057 15.9583 26.0103 13.3681 26.0103C10.7598 26.0103 9.38314 27.2057 8.27822 28.1476C7.28198 29.0171 6.57554 29.6329 4.98156 29.6329C4.2389 29.6329 3.62305 30.2488 3.62305 30.9915C3.62305 31.7522 4.2389 32.35 4.98156 32.35C7.58989 32.35 8.94838 31.1726 10.0533 30.2126C11.0495 29.3431 11.7741 28.7273 13.3681 28.7273C14.9621 28.7273 15.6685 29.3431 16.6648 30.2126C17.7697 31.1726 19.1463 32.35 21.7365 32.35C24.3448 32.35 25.7215 31.1726 26.8264 30.2126C27.8226 29.3431 28.5291 28.7273 30.123 28.7273C31.6989 28.7273 32.4235 29.3431 33.4197 30.2126C34.5246 31.1726 35.9012 32.35 38.4914 32.35C39.2341 32.35 39.85 31.7522 39.85 30.9915C39.85 30.2488 39.2341 29.6329 38.4914 29.6329Z" fill="white"/>
<path d="M38.4914 22.171C36.8975 22.171 36.191 21.5371 35.1948 20.6857C34.0899 19.7257 32.7133 18.5483 30.123 18.5483C27.5147 18.5483 26.1562 19.7257 25.0512 20.6857C24.055 21.5371 23.3305 22.171 21.7365 22.171C20.1606 22.171 19.4361 21.5371 18.4398 20.6857C17.3349 19.7257 15.9583 18.5483 13.3681 18.5483C10.7598 18.5483 9.38314 19.7257 8.27822 20.6857C7.28198 21.5371 6.57554 22.171 4.98156 22.171C4.2389 22.171 3.62305 22.7688 3.62305 23.5295C3.62305 24.2722 4.2389 24.888 4.98156 24.888C7.58989 24.888 8.94838 23.6926 10.0533 22.7325C11.0495 21.8812 11.7741 21.2654 13.3681 21.2654C14.9621 21.2654 15.6685 21.8812 16.6648 22.7325C17.7697 23.6926 19.1463 24.888 21.7365 24.888C24.3448 24.888 25.7215 23.6926 26.8264 22.7325C27.8226 21.8812 28.5291 21.2654 30.123 21.2654C31.6989 21.2654 32.4235 21.8812 33.4197 22.7325C34.5246 23.6926 35.9012 24.888 38.4914 24.888C39.2341 24.888 39.85 24.2722 39.85 23.5295C39.85 22.7688 39.2341 22.171 38.4914 22.171Z" fill="white"/>
<path d="M4.98156 17.4603C7.58989 17.4603 8.94838 16.2648 10.0533 15.3229C11.0495 14.4535 11.7741 13.8376 13.3681 13.8376C14.9621 13.8376 15.6685 14.4535 16.6648 15.3229C17.7697 16.2648 19.1463 17.4603 21.7365 17.4603C24.3448 17.4603 25.7215 16.2648 26.8264 15.3229C27.8226 14.4535 28.5291 13.8376 30.123 13.8376C31.6989 13.8376 32.4235 14.4535 33.4197 15.3229C34.5246 16.2648 35.9012 17.4603 38.4914 17.4603C39.2341 17.4603 39.8499 16.8445 39.8499 16.1018C39.8499 15.341 39.2341 14.7433 38.4914 14.7433C36.8975 14.7433 36.191 14.1274 35.1948 13.258C34.0899 12.298 32.7133 11.1206 30.123 11.1206C27.5147 11.1206 26.1562 12.298 25.0512 13.258C24.055 14.1274 23.3305 14.7433 21.7365 14.7433C20.1606 14.7433 19.4361 14.1274 18.4398 13.258C17.3349 12.298 15.9583 11.1206 13.3681 11.1206C10.7598 11.1206 9.38314 12.298 8.27822 13.258C7.28198 14.1274 6.57554 14.7433 4.98156 14.7433C4.2389 14.7433 3.62305 15.341 3.62305 16.1018C3.62305 16.8445 4.2389 17.4603 4.98156 17.4603Z" fill="white"/>
</svg>
